<svg width="40" height="40" viewBox="0 0 40 40" fill="none" xmlns="http://www.w3.org/2000/svg">
<g clip-path="url(#clip0_20_2)">
<path d="M20 0C8.97203 0 0 8.97203 0 20C0 31.028 8.97203 40 20 40C31.028 40 40 31.028 40 20C40 8.97203 31.0281 0 20 0ZM20 37.4422C10.3824 37.4422 2.55784 29.6177 2.55784 20C2.55784 10.3823 10.3824 2.55784 20 2.55784C29.6176 2.55784 37.4422 10.3824 37.4422 20C37.4422 29.6176 29.6176 37.4422 20 37.4422Z" fill="#C0373E"/>
<path d="M23.2157 25.8292L20.825 27.2287V17.0271C20.825 16.5804 20.592 16.1662 20.2104 15.9343C19.8287 15.7024 19.354 15.6861 18.9574 15.8918L15.5496 17.659C14.9225 17.9841 14.6778 18.756 15.003 19.383C15.3282 20.0101 16.1 20.2549 16.7271 19.9297L18.2672 19.131V29.4596C18.2672 29.9179 18.5124 30.341 18.9099 30.5691C19.107 30.6821 19.3265 30.7385 19.5461 30.7385C19.7695 30.7385 19.9927 30.6801 20.1921 30.5634L24.5079 28.0371C25.1175 27.6802 25.3224 26.8969 24.9656 26.2873C24.6088 25.6777 23.8252 25.4725 23.2157 25.8292Z" fill="#C0373E"/>
<path d="M19.546 14.0748C20.5219 14.0748 21.313 13.2837 21.313 12.3077C21.313 11.3318 20.5219 10.5407 19.546 10.5407C18.5701 10.5407 17.7789 11.3318 17.7789 12.3077C17.7789 13.2837 18.5701 14.0748 19.546 14.0748Z" fill="#C0373E"/>
</g>
<defs>
<clipPath id="clip0_20_2">
<rect width="40" height="40" fill="white"/>
</clipPath>
</defs>
</svg>
