<svg width="32" height="32" viewBox="0 0 32 32" fill="none" xmlns="http://www.w3.org/2000/svg">
<g clip-path="url(#clip0_21_22)">
<path d="M16 0C12.8355 0 9.74207 0.938384 7.11088 2.69649C4.4797 4.45459 2.42894 6.95345 1.21793 9.87706C0.0069325 12.8007 -0.309921 16.0177 0.307443 19.1214C0.924806 22.2251 2.44866 25.0761 4.6863 27.3137C6.92394 29.5513 9.77487 31.0752 12.8786 31.6926C15.9823 32.3099 19.1993 31.9931 22.1229 30.7821C25.0466 29.5711 27.5454 27.5203 29.3035 24.8891C31.0616 22.2579 32 19.1645 32 16C32 11.7565 30.3143 7.68687 27.3137 4.68629C24.3131 1.68571 20.2435 0 16 0V0ZM16 28C13.6266 28 11.3066 27.2962 9.33317 25.9776C7.35978 24.6591 5.8217 22.7849 4.91345 20.5922C4.0052 18.3995 3.76756 15.9867 4.23058 13.6589C4.69361 11.3311 5.8365 9.19295 7.51473 7.51472C9.19296 5.83649 11.3312 4.6936 13.6589 4.23058C15.9867 3.76755 18.3995 4.00519 20.5922 4.91345C22.7849 5.8217 24.6591 7.35977 25.9776 9.33316C27.2962 11.3065 28 13.6266 28 16C27.9966 19.1815 26.7312 22.2318 24.4815 24.4815C22.2318 26.7312 19.1815 27.9966 16 28V28Z" fill="#C0373E"/>
<path d="M20.02 16H17C16.7348 16 16.4804 15.8946 16.2929 15.7071C16.1054 15.5196 16 15.2652 16 15V11.98C16.0001 11.7199 15.949 11.4624 15.8495 11.2221C15.7501 10.9818 15.6043 10.7635 15.4204 10.5796C15.2365 10.3957 15.0182 10.2499 14.7779 10.1505C14.5376 10.051 14.2801 9.99987 14.02 10H13.98C13.7199 9.99987 13.4624 10.051 13.2221 10.1505C12.9818 10.2499 12.7635 10.3957 12.5796 10.5796C12.3957 10.7635 12.2499 10.9818 12.1505 11.2221C12.051 11.4624 11.9999 11.7199 12 11.98V18.02C11.9999 18.2801 12.051 18.5376 12.1505 18.7779C12.2499 19.0182 12.3957 19.2365 12.5796 19.4204C12.7635 19.6043 12.9818 19.7501 13.2221 19.8495C13.4624 19.949 13.7199 20.0001 13.98 20H20.02C20.2801 20.0001 20.5376 19.949 20.7779 19.8495C21.0182 19.7501 21.2365 19.6043 21.4204 19.4204C21.6043 19.2365 21.7501 19.0182 21.8495 18.7779C21.949 18.5376 22.0001 18.2801 22 18.02V17.98C22.0001 17.7199 21.949 17.4624 21.8495 17.2221C21.7501 16.9818 21.6043 16.7635 21.4204 16.5796C21.2365 16.3957 21.0182 16.2499 20.7779 16.1505C20.5376 16.051 20.2801 15.9999 20.02 16V16Z" fill="#C0373E"/>
</g>
<defs>
<clipPath id="clip0_21_22">
<rect width="32" height="32" fill="white"/>
</clipPath>
</defs>
</svg>
